<svg width="44" height="44" viewBox="0 0 44 44" fill="none" xmlns="http://www.w3.org/2000/svg">
<g clip-path="url(#clip0_1_897)">
<rect width="44" height="44" rx="12" fill="#F5F5F5"/>
<g clip-path="url(#clip1_1_897)">
<mask id="mask0_1_897" style="mask-type:alpha" maskUnits="userSpaceOnUse" x="8" y="8" width="28" height="28">
<rect x="8" y="8" width="28" height="28" fill="white"/>
</mask>
<g mask="url(#mask0_1_897)">
<path d="M31.1875 12.375C31.6514 12.3756 32.0957 12.5606 32.4238 12.8887C32.7518 13.2167 32.9369 13.6611 32.9375 14.125V21.5625C33.4014 21.5631 33.8457 21.7481 34.1738 22.0762C34.5018 22.4042 34.6869 22.8486 34.6875 23.3125V26.8125H35.125C35.241 26.8125 35.3525 26.8584 35.4346 26.9404C35.5166 27.0225 35.5625 27.134 35.5625 27.25V29C35.5625 29.116 35.5166 29.2275 35.4346 29.3096C35.3525 29.3916 35.241 29.4375 35.125 29.4375H34.6875V31.1875C34.6875 31.3035 34.6416 31.415 34.5596 31.4971C34.4775 31.5791 34.366 31.625 34.25 31.625H32.9375C32.8365 31.625 32.7383 31.5904 32.6602 31.5264C32.582 31.4623 32.5285 31.3725 32.5088 31.2734L32.1416 29.4375H11.8584L11.4912 31.2734C11.4715 31.3725 11.418 31.4623 11.3398 31.5264C11.2617 31.5904 11.1635 31.625 11.0625 31.625H9.75C9.63397 31.625 9.52248 31.5791 9.44043 31.4971C9.3584 31.415 9.3125 31.3035 9.3125 31.1875V29.4375H8.875C8.75897 29.4375 8.64748 29.3916 8.56543 29.3096C8.4834 29.2275 8.4375 29.116 8.4375 29V27.25C8.4375 27.134 8.48339 27.0225 8.56543 26.9404C8.64748 26.8584 8.75897 26.8125 8.875 26.8125H9.3125V23.3125C9.31311 22.8486 9.49812 22.4042 9.82617 22.0762C10.1542 21.7481 10.5986 21.5631 11.0625 21.5625V14.125C11.0631 13.6611 11.2481 13.2167 11.5762 12.8887C11.9042 12.5606 12.3486 12.3756 12.8125 12.375H31.1875ZM10.1875 30.75H10.7041L10.9658 29.4375H10.1875V30.75ZM33.2959 30.75H33.8125V29.4375H33.0342L33.2959 30.75ZM9.3125 27.6875V28.5625H34.6875V27.6875H9.3125ZM11.0625 22.4375C10.8305 22.4378 10.6084 22.5303 10.4443 22.6943C10.2803 22.8583 10.1878 23.0805 10.1875 23.3125V26.8125H33.8125V23.3125C33.8122 23.0805 33.7197 22.8583 33.5557 22.6943C33.3917 22.5303 33.1695 22.4378 32.9375 22.4375H11.0625ZM12.8125 13.25C12.5805 13.2503 12.3584 13.3428 12.1943 13.5068C12.0303 13.6709 11.9378 13.893 11.9375 14.125V21.5625H12.8125V19.8125C12.8131 19.3486 12.9981 18.9042 13.3262 18.5762C13.6542 18.2481 14.0986 18.0631 14.5625 18.0625H19.8125C20.2764 18.0631 20.7207 18.2481 21.0488 18.5762C21.3768 18.9042 21.5619 19.3486 21.5625 19.8125V21.5625H22.4375V19.8125C22.4381 19.3486 22.6232 18.9042 22.9512 18.5762C23.2793 18.2481 23.7236 18.0631 24.1875 18.0625H29.4375C29.9014 18.0631 30.3457 18.2481 30.6738 18.5762C31.0018 18.9042 31.1869 19.3486 31.1875 19.8125V21.5625H32.0625V14.125C32.0622 13.893 31.9697 13.6709 31.8057 13.5068C31.6417 13.3428 31.4195 13.2503 31.1875 13.25H12.8125ZM14.5625 18.9375C14.3305 18.9378 14.1084 19.0303 13.9443 19.1943C13.7803 19.3584 13.6878 19.5805 13.6875 19.8125V21.5625H20.6875V19.8125C20.6872 19.5805 20.5947 19.3584 20.4307 19.1943C20.2667 19.0303 20.0445 18.9378 19.8125 18.9375H14.5625ZM24.1875 18.9375C23.9555 18.9378 23.7333 19.0303 23.5693 19.1943C23.4053 19.3584 23.3128 19.5805 23.3125 19.8125V21.5625H30.3125V19.8125C30.3122 19.5805 30.2197 19.3584 30.0557 19.1943C29.8917 19.0303 29.6695 18.9378 29.4375 18.9375H24.1875Z" fill="#363636"/>
</g>
</g>
</g>
<defs>
<clipPath id="clip0_1_897">
<rect width="44" height="44" fill="white"/>
</clipPath>
<clipPath id="clip1_1_897">
<rect width="28" height="28" fill="white" transform="translate(8 8)"/>
</clipPath>
</defs>
</svg>
