<svg width="24" height="24" viewBox="0 0 24 24" fill="none" xmlns="http://www.w3.org/2000/svg">
<path d="M21.4199 16.3779L21.418 16.377H21.417L21.416 16.376L21 17V16.25H19.3105C19.1571 16.0265 18.9989 15.7723 18.8418 15.4844C18.0249 13.9868 17.25 11.6105 17.25 8C17.25 6.60761 16.6965 5.27266 15.7119 4.28809C14.7273 3.30353 13.3924 2.75 12 2.75C10.6076 2.75002 9.27264 3.30353 8.28808 4.28809C7.30353 5.27265 6.74999 6.60762 6.74999 8C6.74999 11.6105 5.97508 13.9868 5.1582 15.4844C5.00113 15.7723 4.84292 16.0265 4.68945 16.25H2.99999V17C3.38491 17.5773 3.41436 17.6201 3.41699 17.623H3.41796C3.41871 17.6225 3.42005 17.6217 3.42089 17.6211C3.42246 17.6201 3.42391 17.6185 3.42578 17.6172C3.42982 17.6144 3.435 17.6113 3.44042 17.6074C3.45141 17.5997 3.4651 17.5893 3.48144 17.5771C3.51412 17.5529 3.55757 17.5197 3.60937 17.4766C3.71299 17.3902 3.85203 17.2645 4.01367 17.0938C4.21257 16.8838 4.44501 16.6059 4.68945 16.25H19.3105C19.5551 16.6061 19.7883 16.8838 19.9873 17.0938C20.1488 17.2643 20.287 17.3902 20.3906 17.4766C20.4424 17.5196 20.486 17.5529 20.5185 17.5771C20.5349 17.5893 20.5486 17.5997 20.5596 17.6074C20.565 17.6113 20.5701 17.6144 20.5742 17.6172C20.576 17.6185 20.5775 17.6201 20.5791 17.6211L20.582 17.623H20.583L21.417 16.377C21.6912 16.5604 21.8134 16.9019 21.7178 17.2178C21.6218 17.5339 21.3303 17.75 21 17.75H2.99999C2.66967 17.75 2.37812 17.5339 2.28222 17.2178C2.18658 16.9019 2.30882 16.5604 2.583 16.377L2.98535 16.9785L2.58398 16.376L2.583 16.377H2.58203C2.58313 16.3761 2.5845 16.3751 2.58593 16.374C2.5972 16.3656 2.61844 16.3492 2.64843 16.3242C2.70885 16.2739 2.80529 16.1887 2.9248 16.0625C3.16343 15.8106 3.49925 15.3936 3.84179 14.7656C4.52487 13.5132 5.24999 11.3892 5.24999 8C5.24999 6.20979 5.96166 4.49243 7.22753 3.22656C8.49335 1.96099 10.21 1.25002 12 1.25C13.7902 1.25 15.5075 1.96072 16.7734 3.22656C18.0392 4.49243 18.75 6.20979 18.75 8C18.75 11.3892 19.4751 13.5132 20.1582 14.7656C20.5008 15.3937 20.8376 15.8106 21.0762 16.0625C21.1955 16.1885 21.2912 16.274 21.3516 16.3242C21.3816 16.3492 21.4027 16.3656 21.4141 16.374L21.4199 16.3779ZM21.4238 16.3809C21.4238 16.3809 21.4229 16.3806 21.4219 16.3799C21.4214 16.3795 21.4208 16.3786 21.4199 16.3779C21.4221 16.3795 21.4236 16.3807 21.4238 16.3809Z" fill="#363636"/>
<path d="M13.0812 20.6233C13.2891 20.2652 13.7484 20.1431 14.1066 20.3509C14.4648 20.5587 14.5867 21.018 14.3791 21.3763C14.1373 21.793 13.7897 22.1387 13.3722 22.3792C12.9548 22.6196 12.4818 22.7463 12.0001 22.7464C11.5184 22.7464 11.0446 22.6197 10.6271 22.3792C10.2098 22.1387 9.86292 21.7929 9.62124 21.3763C9.41344 21.018 9.53542 20.5587 9.8937 20.3509C10.2519 20.1432 10.7113 20.2652 10.9191 20.6233C11.029 20.8127 11.1864 20.9701 11.3761 21.0794C11.5659 21.1887 11.7812 21.2464 12.0001 21.2464C12.2191 21.2463 12.4345 21.1887 12.6242 21.0794C12.8138 20.9701 12.9714 20.8126 13.0812 20.6233Z" fill="#363636"/>
</svg>
