<svg width="30" height="30" viewBox="0 0 30 30" fill="none" xmlns="http://www.w3.org/2000/svg">
<rect width="30" height="30" rx="4" fill="#E0E0E0"/>
<path d="M20.333 7.66666C21.0696 7.66666 21.6668 8.29024 21.667 9.06021L22.9688 21.3102C22.988 21.4057 23 21.5043 23 21.6061C23 22.3761 22.4034 22.9995 21.667 22.9997H8.33301C7.59651 22.9995 7.00003 22.3761 7 21.6061C7 21.5043 7.01192 21.4057 7.03125 21.3102L8.33301 9.06021C8.33321 8.29024 8.93044 7.66666 9.66699 7.66666H20.333ZM18 9.06021C17.448 9.06021 17 9.52902 17 10.1061V11.8483C17 13.0011 16.1027 13.9391 15 13.9391C13.8973 13.9391 13 13.0011 13 11.8483V10.1061C13 9.52902 12.552 9.06021 12 9.06021C11.448 9.06021 11 9.52902 11 10.1061C11 10.5605 11.2797 10.944 11.667 11.0876V11.8483C11.667 13.7698 13.162 15.3336 15 15.3336C16.838 15.3336 18.333 13.7698 18.333 11.8483V11.0876C18.7204 10.944 19 10.5605 19 10.1061C19 9.52902 18.552 9.06021 18 9.06021Z" fill="#C07701"/>
</svg>
