<svg width="44" height="44" viewBox="0 0 44 44" fill="none" xmlns="http://www.w3.org/2000/svg">
<g clip-path="url(#clip0_1_857)">
<rect width="44" height="44" rx="12" fill="#F5F5F5"/>
<g clip-path="url(#clip1_1_857)">
<mask id="mask0_1_857" style="mask-type:alpha" maskUnits="userSpaceOnUse" x="8" y="8" width="28" height="28">
<rect x="8" y="8" width="28" height="28" fill="white"/>
</mask>
<g mask="url(#mask0_1_857)">
<path d="M25.4364 8C27.0195 8 28.3075 9.28719 28.3075 10.8691C28.3075 10.9613 28.3093 10.9069 28.2509 12.1572L27.788 22.0547H27.8309C28.5999 22.0547 29.2254 22.6804 29.2255 23.4492V25.4834C29.2254 26.2522 28.5999 26.8779 27.8309 26.8779H27.5487V34.8477C27.5487 35.4828 27.0324 35.9998 26.3973 36C25.7956 36 25.2905 35.5298 25.2479 34.9297L24.6757 26.8779H19.3251L18.7528 34.9297C18.71 35.5298 18.2051 35.9999 17.6034 36C16.9681 36 16.451 35.483 16.451 34.8477V26.8779H16.1688C15.3999 26.8779 14.7744 26.2522 14.7743 25.4834V23.4492C14.7744 22.6804 15.3999 22.0547 16.1688 22.0547H16.2128L15.826 13.7988C15.6837 10.7575 15.6922 10.9657 15.6923 10.8691C15.6923 9.28719 16.9802 8 18.5634 8H25.4364ZM17.2714 34.8477C17.2714 35.0307 17.4204 35.1797 17.6034 35.1797C17.7768 35.1796 17.9221 35.044 17.9344 34.8711L18.5028 26.8779H17.2714V34.8477ZM26.0653 34.8711C26.0776 35.044 26.2239 35.1797 26.3973 35.1797C26.58 35.1794 26.7284 35.0305 26.7284 34.8477V26.8779H25.4979L26.0653 34.8711ZM16.1688 22.875C15.8522 22.875 15.5947 23.1327 15.5946 23.4492V25.4834C15.5947 25.7999 15.8522 26.0576 16.1688 26.0576H27.8309C28.1476 26.0576 28.405 25.7999 28.4052 25.4834V23.4492C28.4051 23.1327 28.1476 22.875 27.8309 22.875H16.1688ZM18.5634 8.82031C17.4325 8.82031 16.5126 9.73957 16.5126 10.8691C16.5126 10.9393 16.5044 10.7478 16.6454 13.7598L17.0341 22.0547H26.9667L27.4315 12.1182C27.4901 10.865 27.4872 10.9358 27.4872 10.8691C27.4872 9.73957 26.5672 8.82031 25.4364 8.82031H18.5634Z" fill="#363636"/>
</g>
</g>
</g>
<defs>
<clipPath id="clip0_1_857">
<rect width="44" height="44" fill="white"/>
</clipPath>
<clipPath id="clip1_1_857">
<rect width="28" height="28" fill="white" transform="translate(8 8)"/>
</clipPath>
</defs>
</svg>
