<svg width="24" height="24" viewBox="0 0 24 24" fill="none" xmlns="http://www.w3.org/2000/svg">
<g clip-path="url(#clip0_36_1271)">
<mask id="mask0_36_1271" style="mask-type:luminance" maskUnits="userSpaceOnUse" x="0" y="0" width="24" height="24">
<rect width="24" height="24" fill="white"/>
</mask>
<g mask="url(#mask0_36_1271)">
<path d="M22 12.6667C21.9122 12.6672 21.8253 12.6504 21.744 12.6172C21.6628 12.584 21.5889 12.5351 21.5266 12.4734L12 2.94001L2.47335 12.4734C2.34582 12.5826 2.18177 12.6396 2.01398 12.6332C1.8462 12.6267 1.68704 12.5571 1.56831 12.4384C1.44958 12.3197 1.38002 12.1605 1.37354 11.9927C1.36706 11.8249 1.42413 11.6609 1.53335 11.5334L11.5333 1.53334C11.6582 1.40917 11.8272 1.33948 12.0033 1.33948C12.1794 1.33948 12.3484 1.40917 12.4733 1.53334L22.4733 11.5334C22.565 11.6269 22.6272 11.7455 22.6519 11.8742C22.6766 12.0029 22.6629 12.136 22.6124 12.257C22.5619 12.3779 22.4768 12.4812 22.3679 12.5541C22.259 12.627 22.131 12.6662 22 12.6667Z" fill="#C07701"/>
<path d="M12 5.1933L4 13.22V21.3333C4 21.6869 4.14048 22.0261 4.39052 22.2761C4.64057 22.5262 4.97971 22.6666 5.33333 22.6666H10V16H14V22.6666H18.6667C19.0203 22.6666 19.3594 22.5262 19.6095 22.2761C19.8595 22.0261 20 21.6869 20 21.3333V13.1733L12 5.1933Z" fill="#C07701"/>
</g>
</g>
<defs>
<clipPath id="clip0_36_1271">
<rect width="24" height="24" fill="white"/>
</clipPath>
</defs>
</svg>
