<svg width="20" height="20" viewBox="0 0 20 20" fill="none" xmlns="http://www.w3.org/2000/svg">
<path d="M2.8692 9.5C2.94415 9.62095 3.03891 9.76897 3.15338 9.93652C3.48689 10.4247 3.98118 11.0744 4.6231 11.7217C5.91816 13.0275 7.73801 14.25 10.0001 14.25C12.2622 14.25 14.0819 13.0275 15.377 11.7217C16.0189 11.0743 16.5133 10.4247 16.8467 9.93652C16.9611 9.76917 17.055 9.62087 17.1299 9.5C17.164 9.55497 17.195 9.60416 17.2208 9.64746C17.2619 9.71653 17.2921 9.76992 17.3116 9.80469C17.3214 9.82207 17.3289 9.83498 17.3331 9.84277C17.3352 9.84649 17.3363 9.84926 17.337 9.85059C17.338 9.84979 17.3653 9.83573 18.0001 9.5L18.6631 9.85156H18.6622L18.6612 9.85352C18.6606 9.85476 18.6603 9.85656 18.6592 9.8584C18.6571 9.86231 18.6539 9.86755 18.6504 9.87402C18.6434 9.88702 18.6329 9.90492 18.6202 9.92773C18.5946 9.97347 18.5581 10.0389 18.5098 10.1201C18.4132 10.2824 18.2709 10.5101 18.085 10.7822C17.714 11.3252 17.163 12.0508 16.4415 12.7783C15.0093 14.2224 12.8288 15.75 10.0001 15.75C7.17133 15.75 4.99086 14.2224 3.55865 12.7783C2.83715 12.0508 2.28609 11.3252 1.9151 10.7822C1.72922 10.5101 1.58683 10.2824 1.49029 10.1201C1.44199 10.0389 1.40554 9.97347 1.37994 9.92773C1.36717 9.90492 1.35674 9.88702 1.34967 9.87402C1.34614 9.86756 1.34297 9.8623 1.34088 9.8584C1.3399 9.85657 1.33959 9.85476 1.33892 9.85352L1.33795 9.85156H1.33697L2.00006 9.5C2.63724 9.83702 2.66228 9.84989 2.66314 9.85059C2.66386 9.84926 2.66503 9.84649 2.66705 9.84277C2.67129 9.83498 2.6788 9.82208 2.68853 9.80469C2.708 9.76991 2.73825 9.71654 2.77935 9.64746C2.80505 9.60427 2.83524 9.55479 2.8692 9.5ZM2.00006 9.5L1.33697 9.85059C1.22101 9.63127 1.22101 9.36873 1.33697 9.14941L2.00006 9.5ZM18.6631 9.14941C18.7791 9.36873 18.7791 9.63127 18.6631 9.85059L18.0001 9.5L18.6631 9.14941ZM10.0001 3.25C12.8288 3.25 15.0093 4.7776 16.4415 6.22168C17.163 6.9492 17.714 7.67475 18.085 8.21777C18.2709 8.48985 18.4132 8.71764 18.5098 8.87988C18.5581 8.96106 18.5946 9.02653 18.6202 9.07227C18.6329 9.09508 18.6434 9.11298 18.6504 9.12598C18.6539 9.13245 18.6571 9.13769 18.6592 9.1416C18.6603 9.14344 18.6606 9.14524 18.6612 9.14648L18.6622 9.14844H18.6631L18.0001 9.5C17.3653 9.16427 17.338 9.15021 17.337 9.14941L17.3331 9.15723C17.3289 9.16502 17.3214 9.17793 17.3116 9.19531C17.2921 9.23008 17.2619 9.28347 17.2208 9.35254C17.195 9.39584 17.164 9.44503 17.1299 9.5C17.055 9.37913 16.9611 9.23083 16.8467 9.06348C16.5133 8.57533 16.0189 7.92566 15.377 7.27832C14.0819 5.97245 12.2622 4.75 10.0001 4.75C7.73801 4.75 5.91816 5.97245 4.6231 7.27832C3.98118 7.92564 3.48689 8.57534 3.15338 9.06348C3.03891 9.23103 2.94415 9.37905 2.8692 9.5C2.83524 9.44521 2.80505 9.39573 2.77935 9.35254C2.73825 9.28346 2.708 9.23009 2.68853 9.19531C2.6788 9.17792 2.67129 9.16502 2.66705 9.15723L2.66314 9.14941L2.00006 9.5L1.33697 9.14844H1.33795L1.33892 9.14648C1.33959 9.14524 1.3399 9.14343 1.34088 9.1416C1.34297 9.1377 1.34614 9.13244 1.34967 9.12598C1.35674 9.11298 1.36717 9.09508 1.37994 9.07227C1.40554 9.02653 1.44199 8.96106 1.49029 8.87988C1.58683 8.71764 1.72922 8.48985 1.9151 8.21777C2.28609 7.67475 2.83715 6.9492 3.55865 6.22168C4.99086 4.77761 7.17133 3.25 10.0001 3.25Z" fill="#C07701"/>
<path d="M11.25 9.5C11.25 8.36868 10.5428 7.75 10 7.75C9.45717 7.75 8.75 8.36868 8.75 9.5C8.75 10.6313 9.45717 11.25 10 11.25C10.5428 11.25 11.25 10.6313 11.25 9.5ZM12.75 9.5C12.75 11.1301 11.6663 12.75 10 12.75C8.33369 12.75 7.25 11.1301 7.25 9.5C7.25 7.8699 8.33369 6.25 10 6.25C11.6663 6.25 12.75 7.8699 12.75 9.5Z" fill="#C07701"/>
</svg>
