<svg width="24" height="24" viewBox="0 0 24 24" fill="none" xmlns="http://www.w3.org/2000/svg">
<path d="M5.88184 2.75H18.1846C18.8152 2.75 19.2497 3.2331 19.25 3.69727V20.8643C19.2499 21.1034 19.182 21.1883 19.1631 21.208C19.1414 21.2307 19.1059 21.2499 19.0469 21.25C18.9835 21.25 18.8609 21.2252 18.666 21.0684H18.665L13.1787 16.6611C12.8536 16.3996 12.4359 16.2803 12.041 16.2803C11.6464 16.2804 11.2275 16.3991 10.9023 16.6611L5.40039 21.0684L5.39844 21.0693C5.21686 21.2156 5.07313 21.25 4.99707 21.25L4.94238 21.2441C4.89365 21.2329 4.85983 21.2072 4.84082 21.1816C4.79371 21.1178 4.75009 21.0187 4.75 20.8643V3.69727C4.75034 3.26642 5.21496 2.75 5.88184 2.75Z" stroke="#363636" stroke-width="1.5"/>
</svg>
