<svg width="54" height="69" viewBox="0 0 54 69" fill="none" xmlns="http://www.w3.org/2000/svg">
<path d="M7.602 57.098C7.602 57.91 7.322 58.5867 6.762 59.128C6.21133 59.66 5.36667 59.926 4.228 59.926H2.352V64H1.078V54.242H4.228C5.32933 54.242 6.16467 54.508 6.734 55.04C7.31267 55.572 7.602 56.258 7.602 57.098ZM4.228 58.876C4.93733 58.876 5.46 58.722 5.796 58.414C6.132 58.106 6.3 57.6673 6.3 57.098C6.3 55.894 5.60933 55.292 4.228 55.292H2.352V58.876H4.228ZM12.5314 64.126C11.8128 64.126 11.1594 63.9627 10.5714 63.636C9.99276 63.3093 9.53542 62.8473 9.19942 62.25C8.87276 61.6433 8.70942 60.9433 8.70942 60.15C8.70942 59.366 8.87742 58.6753 9.21342 58.078C9.55876 57.4713 10.0254 57.0093 10.6134 56.692C11.2014 56.3653 11.8594 56.202 12.5874 56.202C13.3154 56.202 13.9734 56.3653 14.5614 56.692C15.1494 57.0093 15.6114 57.4667 15.9474 58.064C16.2928 58.6613 16.4654 59.3567 16.4654 60.15C16.4654 60.9433 16.2881 61.6433 15.9334 62.25C15.5881 62.8473 15.1168 63.3093 14.5194 63.636C13.9221 63.9627 13.2594 64.126 12.5314 64.126ZM12.5314 63.006C12.9888 63.006 13.4181 62.8987 13.8194 62.684C14.2208 62.4693 14.5428 62.1473 14.7854 61.718C15.0374 61.2887 15.1634 60.766 15.1634 60.15C15.1634 59.534 15.0421 59.0113 14.7994 58.582C14.5568 58.1527 14.2394 57.8353 13.8474 57.63C13.4554 57.4153 13.0308 57.308 12.5734 57.308C12.1068 57.308 11.6774 57.4153 11.2854 57.63C10.9028 57.8353 10.5948 58.1527 10.3614 58.582C10.1281 59.0113 10.0114 59.534 10.0114 60.15C10.0114 60.7753 10.1234 61.3027 10.3474 61.732C10.5808 62.1613 10.8888 62.4833 11.2714 62.698C11.6541 62.9033 12.0741 63.006 12.5314 63.006ZM19.4145 57.742C19.6665 57.3033 20.0398 56.9393 20.5345 56.65C21.0385 56.3513 21.6218 56.202 22.2845 56.202C22.9658 56.202 23.5818 56.3653 24.1325 56.692C24.6925 57.0187 25.1312 57.4807 25.4485 58.078C25.7658 58.666 25.9245 59.352 25.9245 60.136C25.9245 60.9107 25.7658 61.6013 25.4485 62.208C25.1312 62.8147 24.6925 63.286 24.1325 63.622C23.5818 63.958 22.9658 64.126 22.2845 64.126C21.6312 64.126 21.0525 63.9813 20.5485 63.692C20.0538 63.3933 19.6758 63.0247 19.4145 62.586V67.64H18.1405V56.328H19.4145V57.742ZM24.6225 60.136C24.6225 59.5573 24.5058 59.0533 24.2725 58.624C24.0392 58.1947 23.7218 57.868 23.3205 57.644C22.9285 57.42 22.4945 57.308 22.0185 57.308C21.5518 57.308 21.1178 57.4247 20.7165 57.658C20.3245 57.882 20.0072 58.2133 19.7645 58.652C19.5312 59.0813 19.4145 59.5807 19.4145 60.15C19.4145 60.7287 19.5312 61.2373 19.7645 61.676C20.0072 62.1053 20.3245 62.4367 20.7165 62.67C21.1178 62.894 21.5518 63.006 22.0185 63.006C22.4945 63.006 22.9285 62.894 23.3205 62.67C23.7218 62.4367 24.0392 62.1053 24.2725 61.676C24.5058 61.2373 24.6225 60.724 24.6225 60.136ZM34.4054 56.328V64H33.1314V62.866C32.8888 63.258 32.5481 63.566 32.1094 63.79C31.6801 64.0047 31.2041 64.112 30.6814 64.112C30.0841 64.112 29.5474 63.9907 29.0714 63.748C28.5954 63.496 28.2174 63.1227 27.9374 62.628C27.6668 62.1333 27.5314 61.5313 27.5314 60.822V56.328H28.7914V60.654C28.7914 61.41 28.9828 61.9933 29.3654 62.404C29.7481 62.8053 30.2708 63.006 30.9334 63.006C31.6148 63.006 32.1514 62.796 32.5434 62.376C32.9354 61.956 33.1314 61.3447 33.1314 60.542V56.328H34.4054ZM37.8305 53.64V64H36.5565V53.64H37.8305ZM39.5258 60.136C39.5258 59.352 39.6845 58.666 40.0018 58.078C40.3192 57.4807 40.7532 57.0187 41.3038 56.692C41.8638 56.3653 42.4845 56.202 43.1658 56.202C43.8378 56.202 44.4212 56.3467 44.9158 56.636C45.4105 56.9253 45.7792 57.2893 46.0218 57.728V56.328H47.3098V64H46.0218V62.572C45.7698 63.02 45.3918 63.3933 44.8878 63.692C44.3932 63.9813 43.8145 64.126 43.1518 64.126C42.4705 64.126 41.8545 63.958 41.3038 63.622C40.7532 63.286 40.3192 62.8147 40.0018 62.208C39.6845 61.6013 39.5258 60.9107 39.5258 60.136ZM46.0218 60.15C46.0218 59.5713 45.9052 59.0673 45.6718 58.638C45.4385 58.2087 45.1212 57.882 44.7198 57.658C44.3278 57.4247 43.8938 57.308 43.4178 57.308C42.9418 57.308 42.5078 57.42 42.1158 57.644C41.7238 57.868 41.4112 58.1947 41.1778 58.624C40.9445 59.0533 40.8278 59.5573 40.8278 60.136C40.8278 60.724 40.9445 61.2373 41.1778 61.676C41.4112 62.1053 41.7238 62.4367 42.1158 62.67C42.5078 62.894 42.9418 63.006 43.4178 63.006C43.8938 63.006 44.3278 62.894 44.7198 62.67C45.1212 62.4367 45.4385 62.1053 45.6718 61.676C45.9052 61.2373 46.0218 60.7287 46.0218 60.15ZM50.7368 57.574C50.9608 57.1353 51.2781 56.7947 51.6888 56.552C52.1088 56.3093 52.6174 56.188 53.2148 56.188V57.504H52.8788C51.4508 57.504 50.7368 58.2787 50.7368 59.828V64H49.4628V56.328H50.7368V57.574Z" fill="#C07701"/>
<g clip-path="url(#clip0_1_847)">
<rect x="4" width="44" height="44" rx="12" fill="#C07701"/>
<g clip-path="url(#clip1_1_847)">
<mask id="mask0_1_847" style="mask-type:alpha" maskUnits="userSpaceOnUse" x="16" y="12" width="20" height="20">
<rect x="16" y="12" width="20" height="20" fill="white"/>
</mask>
<g mask="url(#mask0_1_847)">
<path d="M35.9824 19.7248C35.9401 19.5952 35.8281 19.5007 35.6931 19.481L29.217 18.5398L26.3209 12.6716C26.2607 12.5492 26.1361 12.4718 26.0001 12.4718C25.8641 12.4718 25.7391 12.5492 25.6793 12.6716L22.7828 18.5402L16.3067 19.4814C16.1718 19.501 16.0601 19.5952 16.0175 19.7251C15.9756 19.8544 16.0103 19.9969 16.108 20.0917L20.7945 24.6597L19.688 31.11C19.6651 31.2442 19.7202 31.3799 19.8301 31.4601C19.9407 31.541 20.0871 31.5514 20.2071 31.4873L26.0001 28.4422L31.7924 31.4873C31.8447 31.5149 31.9023 31.5285 31.9593 31.5285C32.0334 31.5285 32.1071 31.5056 32.1698 31.4601C32.28 31.3799 32.3351 31.2442 32.3119 31.11L31.2057 24.66L35.8922 20.0917C35.9895 19.9961 36.0246 19.854 35.9824 19.7248Z" fill="white"/>
</g>
</g>
</g>
<defs>
<clipPath id="clip0_1_847">
<rect width="44" height="44" fill="white" transform="translate(4)"/>
</clipPath>
<clipPath id="clip1_1_847">
<rect width="20" height="20" fill="white" transform="translate(16 12)"/>
</clipPath>
</defs>
</svg>
