<svg width="20" height="20" viewBox="0 0 20 20" fill="none" xmlns="http://www.w3.org/2000/svg">
<path d="M10 0C15.5228 0 20 4.47715 20 10C20 15.5228 15.5228 20 10 20C4.47715 20 0 15.5228 0 10C0 4.47715 4.47715 0 10 0ZM10 1.53809C5.32682 1.53809 1.53809 5.32682 1.53809 10C1.53809 14.6732 5.32682 18.4619 10 18.4619C14.6732 18.4619 18.4619 14.6732 18.4619 10C18.4619 5.32682 14.6732 1.53809 10 1.53809ZM12.2764 6.37891C12.5767 6.07886 13.0639 6.0788 13.3643 6.37891C13.6646 6.67921 13.6644 7.16637 13.3643 7.4668L10.8311 9.99902L13.3643 12.5322C13.6646 12.8325 13.6644 13.3197 13.3643 13.6201C13.0639 13.9205 12.5768 13.9205 12.2764 13.6201L9.74316 11.0869L7.21094 13.6201C6.91054 13.9205 6.42345 13.9205 6.12305 13.6201C5.82284 13.3197 5.8227 12.8326 6.12305 12.5322L8.65527 9.99902L6.12305 7.4668C5.82267 7.1664 5.82266 6.6793 6.12305 6.37891C6.42346 6.0788 6.91063 6.07863 7.21094 6.37891L9.74316 8.91113L12.2764 6.37891Z" fill="#C07701"/>
</svg>
