<svg width="20" height="20" viewBox="0 0 20 20" fill="none" xmlns="http://www.w3.org/2000/svg">
<path d="M15.333 2.66666C16.0696 2.66666 16.6668 3.29024 16.667 4.06021L17.9688 16.3102C17.988 16.4057 18 16.5043 18 16.6061C18 17.3761 17.4034 17.9995 16.667 17.9997H3.33301C2.59651 17.9995 2.00003 17.3761 2 16.6061C2 16.5043 2.01192 16.4057 2.03125 16.3102L3.33301 4.06021C3.33321 3.29024 3.93044 2.66666 4.66699 2.66666H15.333ZM13 4.06021C12.448 4.06021 12 4.52902 12 5.10611V6.8483C12 8.00109 11.1027 8.93912 10 8.93912C8.89733 8.93912 8 8.00109 8 6.8483V5.10611C8 4.52902 7.552 4.06021 7 4.06021C6.448 4.06021 6 4.52902 6 5.10611C6.00003 5.56051 6.27967 5.94398 6.66699 6.08755V6.8483C6.66699 8.76984 8.162 10.3336 10 10.3336C11.838 10.3336 13.333 8.76984 13.333 6.8483V6.08755C13.7204 5.94398 14 5.56051 14 5.10611C14 4.52902 13.552 4.06021 13 4.06021Z" fill="#C07701"/>
</svg>
