<svg width="28" height="28" viewBox="0 0 28 28" fill="none" xmlns="http://www.w3.org/2000/svg">
<g clip-path="url(#clip0_1_883)">
<mask id="mask0_1_883" style="mask-type:alpha" maskUnits="userSpaceOnUse" x="0" y="0" width="28" height="28">
<rect width="28" height="28" fill="white"/>
</mask>
<g mask="url(#mask0_1_883)">
<path d="M22.8672 3.26666C24.1549 3.26844 25.1985 4.31198 25.2002 5.59967V8.86627H25.667C26.9549 8.86795 27.9985 9.91235 28 11.2003V18.6671C27.9983 19.9548 26.9547 20.9984 25.667 21.0001H25.2002V24.2667C25.2002 24.5243 24.9912 24.7334 24.7334 24.7335H23.7998C23.6052 24.7335 23.4306 24.6129 23.3623 24.4307L22.0762 21.0001H5.92383L4.6377 24.4307C4.56938 24.6129 4.39474 24.7335 4.2002 24.7335H3.2666C3.00891 24.7334 2.7998 24.5243 2.7998 24.2667V21.0001H2.33301C1.04529 20.9984 0.00172729 19.9548 0 18.6671V11.2003C0.00151654 9.91236 1.04516 8.86797 2.33301 8.86627H2.7998V5.59967C2.8015 4.31182 3.8459 3.26818 5.13379 3.26666H22.8672ZM3.7334 23.7999H3.87695L4.92676 21.0001H3.7334V23.7999ZM24.123 23.7999H24.2666V21.0001H23.0732L24.123 23.7999ZM0.933594 18.6671C0.933805 19.44 1.56008 20.0663 2.33301 20.0665H25.667C26.4399 20.0663 27.0662 19.44 27.0664 18.6671V15.3995H0.933594V18.6671ZM2.33301 9.79987C1.55995 9.80004 0.933594 10.4272 0.933594 11.2003V14.4669H4.66699V9.79987H2.33301ZM5.13379 4.20026C4.3607 4.20026 3.73357 4.82661 3.7334 5.59967V8.86627H5.13379C5.39121 8.86652 5.59947 9.07562 5.59961 9.33307V14.4669H22.4004V9.33307C22.4005 9.07547 22.6095 8.86627 22.8672 8.86627H24.2666V5.59967C24.2664 4.82677 23.6401 4.20052 22.8672 4.20026H5.13379ZM23.333 9.79987V14.4669H27.0664V11.2003C27.0664 10.4271 26.4401 9.80002 25.667 9.79987H23.333Z" fill="#363636"/>
</g>
</g>
<defs>
<clipPath id="clip0_1_883">
<rect width="28" height="28" fill="white"/>
</clipPath>
</defs>
</svg>
