<svg width="20" height="20" viewBox="0 0 20 20" fill="none" xmlns="http://www.w3.org/2000/svg">
<g clip-path="url(#clip0_1_779)">
<mask id="mask0_1_779" style="mask-type:luminance" maskUnits="userSpaceOnUse" x="0" y="0" width="20" height="20">
<rect width="20" height="20" fill="white"/>
</mask>
<g mask="url(#mask0_1_779)">
<path d="M19.9824 7.7248C19.9401 7.59521 19.8281 7.5007 19.6931 7.48101L13.217 6.53984L10.3209 0.671623C10.2607 0.549189 10.1361 0.471863 10.0001 0.471863C9.86406 0.471863 9.73912 0.549189 9.67934 0.671623L6.78282 6.5402L0.306722 7.48137C0.171758 7.50105 0.0600646 7.59521 0.0174634 7.72516C-0.0244218 7.85439 0.0103036 7.99688 0.108036 8.09174L4.79452 12.6598L3.68797 19.1101C3.66505 19.2443 3.72019 19.38 3.83009 19.4602C3.94071 19.5411 4.08713 19.5515 4.20706 19.4874L10.0001 16.4423L15.7924 19.4874C15.8447 19.515 15.9023 19.5286 15.9593 19.5286C16.0334 19.5286 16.1071 19.5057 16.1698 19.4602C16.28 19.38 16.3351 19.2443 16.3119 19.1101L15.2057 12.6601L19.8922 8.09174C19.9895 7.99616 20.0246 7.85404 19.9824 7.7248Z" fill="#F2C94C"/>
</g>
</g>
<defs>
<clipPath id="clip0_1_779">
<rect width="20" height="20" fill="white"/>
</clipPath>
</defs>
</svg>
