<svg width="28" height="28" viewBox="0 0 28 28" fill="none" xmlns="http://www.w3.org/2000/svg">
<g clip-path="url(#clip0_1_871)">
<mask id="mask0_1_871" style="mask-type:alpha" maskUnits="userSpaceOnUse" x="0" y="0" width="28" height="28">
<rect width="28" height="28" fill="white"/>
</mask>
<g mask="url(#mask0_1_871)">
<path d="M27.5625 3.9375C27.8041 3.9375 28 4.13339 28 4.375V7C28 7.24161 27.8041 7.4375 27.5625 7.4375H26.25V23.625C26.25 23.8666 26.0541 24.0625 25.8125 24.0625H24.0625C23.8209 24.0625 23.625 23.8666 23.625 23.625V7.4375H4.375V23.625C4.375 23.8666 4.17911 24.0625 3.9375 24.0625H2.1875C1.94589 24.0625 1.75 23.8666 1.75 23.625V7.4375H0.4375C0.195891 7.4375 0 7.24161 0 7V4.375C0 4.13339 0.195891 3.9375 0.4375 3.9375H27.5625ZM0.875 4.8125V6.5625H2.1875C2.42911 6.5625 2.625 6.75839 2.625 7V23.1875H3.5V7C3.5 6.75839 3.69589 6.5625 3.9375 6.5625H24.0625C24.3041 6.5625 24.5 6.75839 24.5 7V23.1875H25.375V7C25.375 6.75839 25.5709 6.5625 25.8125 6.5625H27.125V4.8125H0.875Z" fill="#363636"/>
</g>
</g>
<defs>
<clipPath id="clip0_1_871">
<rect width="28" height="28" fill="white"/>
</clipPath>
</defs>
</svg>
