<svg width="20" height="17" viewBox="0 0 20 17" fill="none" xmlns="http://www.w3.org/2000/svg">
<path d="M19.4199 15.3779L19.418 15.377H19.417L19.416 15.376L19 16V15.25H17.3105C17.1571 15.0265 16.9989 14.7723 16.8418 14.4844C16.0249 12.9868 15.25 10.6105 15.25 7C15.25 5.60761 14.6965 4.27266 13.7119 3.28809C12.7273 2.30353 11.3924 1.75 10 1.75C8.60763 1.75002 7.27264 2.30353 6.28808 3.28809C5.30353 4.27265 4.74999 5.60762 4.74999 7C4.74999 10.6105 3.97508 12.9868 3.1582 14.4844C3.00113 14.7723 2.84292 15.0265 2.68945 15.25H0.999995V16C1.38491 16.5773 1.41436 16.6201 1.41699 16.623H1.41796C1.41871 16.6225 1.42005 16.6217 1.42089 16.6211C1.42246 16.6201 1.42391 16.6185 1.42578 16.6172C1.42982 16.6144 1.435 16.6113 1.44042 16.6074C1.45141 16.5997 1.4651 16.5893 1.48144 16.5771C1.51412 16.5529 1.55757 16.5197 1.60937 16.4766C1.71299 16.3902 1.85203 16.2645 2.01367 16.0938C2.21257 15.8838 2.44501 15.6059 2.68945 15.25H17.3105C17.5551 15.6061 17.7883 15.8838 17.9873 16.0938C18.1488 16.2643 18.287 16.3902 18.3906 16.4766C18.4424 16.5196 18.486 16.5529 18.5185 16.5771C18.5349 16.5893 18.5486 16.5997 18.5596 16.6074C18.565 16.6113 18.5701 16.6144 18.5742 16.6172C18.576 16.6185 18.5775 16.6201 18.5791 16.6211L18.582 16.623H18.583L19.417 15.377C19.6912 15.5604 19.8134 15.9019 19.7178 16.2178C19.6218 16.5339 19.3303 16.75 19 16.75H0.999995C0.669668 16.75 0.378124 16.5339 0.282221 16.2178C0.186581 15.9019 0.308818 15.5604 0.583003 15.377L0.985346 15.9785L0.583979 15.376L0.583003 15.377H0.582026C0.583128 15.3761 0.584497 15.3751 0.585932 15.374C0.597201 15.3656 0.61844 15.3492 0.648432 15.3242C0.708852 15.2739 0.805287 15.1887 0.9248 15.0625C1.16343 14.8106 1.49925 14.3936 1.84179 13.7656C2.52487 12.5132 3.24999 10.3892 3.24999 7C3.24999 5.20979 3.96166 3.49243 5.22753 2.22656C6.49335 0.960992 8.21002 0.250015 10 0.25C11.7902 0.25 13.5075 0.960719 14.7734 2.22656C16.0392 3.49243 16.75 5.20979 16.75 7C16.75 10.3892 17.4751 12.5132 18.1582 13.7656C18.5008 14.3937 18.8376 14.8106 19.0762 15.0625C19.1955 15.1885 19.2912 15.274 19.3516 15.3242C19.3816 15.3492 19.4027 15.3656 19.4141 15.374L19.4199 15.3779ZM19.4238 15.3809C19.4238 15.3809 19.4229 15.3806 19.4219 15.3799C19.4214 15.3795 19.4208 15.3786 19.4199 15.3779C19.4221 15.3795 19.4236 15.3807 19.4238 15.3809Z" fill="#363636"/>
</svg>
